<svg xmlns="http://www.w3.org/2000/svg" viewBox="0 0 26 26">
  <path class="logoIcon" d="M13.18 25.78a13.48 13.48 0 01-6.75-1.82l-.68-.4v-3.4H2.27l-.41-.67A12.76 12.76 0 010 12.9 13.06 13.06 0 0113.18 0a13.06 13.06 0 0113.18 12.9 13.06 13.06 0 01-13.18 12.88zm-4.61-3.8a10.27 10.27 0 004.6 1.04A10.26 10.26 0 0023.54 12.9 10.23 10.23 0 0013.18 2.8 10.26 10.26 0 002.82 12.92a10.13 10.13 0 001.07 4.51h1.86v-4.5a7.37 7.37 0 017.43-7.28 7.37 7.37 0 017.43 7.27 7.37 7.37 0 01-7.43 7.27H8.57zm4.6-13.56a4.56 4.56 0 00-4.6 4.5v4.52h4.6a4.51 4.51 0 100-9.02z"/>
</svg>
